# xmcd CD database file
#
# Track frame offsets:
#	150
#	15917
#	28897
#	44617
#	59382
#	72157
#	88377
#	100867
#	121807
#	141470
#	159995
#	181257
#	198050
#	221115
#	242390
#	271997
#
# Disc length: 3930 seconds
#
# Revision: 0
# Processed by: cddbd v1.5.2PL0 Copyright (c) Steve Scherf et al.
# Submitted via: CDex 1.79
#
DISCID=df0f5810
DTITLE=Eugen Cicero - Pas de deux - with Ruth Juon
DYEAR=1900
DGENRE=Jazz
TTITLE0=Easy to love
TTITLE1=But not for me
TTITLE2=The summer knows
TTITLE3=Gavotte
TTITLE4=Waht are you doning the rest of your life?
TTITLE5=I will wait for you
TTITLE6=The summer knows
TTITLE7=Autumn leaves
TTITLE8=Free
TTITLE9=The boy next door
TTITLE10=Misty
TTITLE11=Long ago and far away
TTITLE12=The man I love
TTITLE13=Gebet
TTITLE14=Misty
TTITLE15=The boy next door
EXTD=
EXTT0=
EXTT1=
EXTT2=
EXTT3=
EXTT4=
EXTT5=
EXTT6=
EXTT7=
EXTT8=
EXTT9=
EXTT10=
EXTT11=
EXTT12=
EXTT13=
EXTT14=
EXTT15=
PLAYORDER=
